<?xml version="1.0" encoding="UTF-8" standalone="no"?>
<svg xmlns:ffdec="https://www.free-decompiler.com/flash" xmlns:xlink="http://www.w3.org/1999/xlink" ffdec:objectType="frame" height="59.75px" width="56.95px" xmlns="http://www.w3.org/2000/svg">
  <g transform="matrix(1.0, 0.0, 0.0, 1.0, 129.6, 31.6)">
    <use ffdec:characterId="6737" height="4.85" transform="matrix(1.0, 0.0, 0.0, 1.0, 0.0, 0.0)" width="4.85" xlink:href="#shape0"/>
    <use ffdec:characterId="6721" height="20.95" transform="matrix(-1.1091, -0.1303, 0.0033, 1.2717, -91.8, -15.15)" width="12.05" xlink:href="#shape1"/>
    <use ffdec:characterId="6721" height="20.95" transform="matrix(0.8902, 0.1311, 0.0204, -1.0179, -82.95, 12.2)" width="12.05" xlink:href="#shape1"/>
  </g>
  <defs>
    <g id="shape0">
      <path d="M-121.9 5.15 Q-122.65 5.85 -123.6 5.85 -124.6 5.85 -125.35 5.15 -126.05 4.4 -126.05 3.45 -126.05 2.45 -125.35 1.7 -124.6 1.0 -123.6 1.0 -122.65 1.0 -121.9 1.7 -121.2 2.45 -121.2 3.45 -121.2 4.4 -121.9 5.15" fill="#6b6b6b" fill-rule="evenodd" stroke="none"/>
    </g>
    <g id="shape1">
      <path d="M4.85 -3.6 Q4.35 -1.6 2.9 -2.05 1.5 -2.55 0.4 0.0 -0.75 2.5 0.45 3.8 1.55 4.95 0.45 5.85 L-1.5 7.2 Q-3.15 9.8 -3.9 9.45 -6.5 5.65 -3.25 5.3 -1.3 5.1 -1.65 3.85 L-2.25 1.65 -2.15 -1.35 Q-2.1 -3.0 -0.65 -3.1 1.4 -3.2 2.05 -4.2 2.8 -5.25 1.15 -6.45 -1.15 -8.2 4.0 -9.45 L3.6 -7.95 Q3.2 -6.45 4.1 -6.15 5.4 -5.75 4.85 -3.6" fill="#ffffff" fill-rule="evenodd" stroke="none"/>
      <path d="M4.85 -3.6 Q4.35 -1.6 2.9 -2.05 1.5 -2.55 0.4 0.0 -0.75 2.5 0.45 3.8 1.55 4.95 0.45 5.85 L-1.5 7.2 Q-3.15 9.8 -3.9 9.45 -6.5 5.65 -3.25 5.3 -1.3 5.1 -1.65 3.85 L-2.25 1.65 -2.15 -1.35 Q-2.1 -3.0 -0.65 -3.1 1.4 -3.2 2.05 -4.2 2.8 -5.25 1.15 -6.45 -1.15 -8.2 4.0 -9.45 L3.6 -7.95 Q3.2 -6.45 4.1 -6.15 5.4 -5.75 4.85 -3.6 Z" fill="none" stroke="#3c3c3c" stroke-linecap="round" stroke-linejoin="round" stroke-width="2.0"/>
      <path d="M4.85 -3.6 Q4.35 -1.6 2.9 -2.05 1.5 -2.55 0.4 0.0 -0.75 2.5 0.45 3.8 1.55 4.95 0.45 5.85 L-1.5 7.2 Q-3.15 9.8 -3.9 9.45 -6.5 5.65 -3.25 5.3 -1.3 5.1 -1.65 3.85 L-2.25 1.65 -2.15 -1.35 Q-2.1 -3.0 -0.65 -3.1 1.4 -3.2 2.05 -4.2 2.8 -5.25 1.15 -6.45 -1.15 -8.2 4.0 -9.45 L3.6 -7.95 Q3.2 -6.45 4.1 -6.15 5.4 -5.75 4.85 -3.6" fill="#9a9a9a" fill-rule="evenodd" stroke="none"/>
    </g>
  </defs>
</svg>
