<?xml version="1.0" encoding="UTF-8" standalone="no"?>
<svg xmlns:ffdec="https://www.free-decompiler.com/flash" xmlns:xlink="http://www.w3.org/1999/xlink" ffdec:objectType="frame" height="59.75px" width="56.95px" xmlns="http://www.w3.org/2000/svg">
  <g transform="matrix(1.0, 0.0, 0.0, 1.0, 129.6, 31.6)">
    <use ffdec:characterId="6754" height="9.95" transform="matrix(1.0, 0.0, 0.0, 1.0, 0.0, 0.0)" width="47.0" xlink:href="#morphshape0"/>
    <use ffdec:characterId="6756" height="10.0" transform="matrix(1.0, 0.0, 0.0, 1.0, 0.0, 0.0)" width="45.45" xlink:href="#morphshape1"/>
    <use ffdec:characterId="6755" height="10.0" transform="matrix(1.0, 0.0, 0.0, 1.0, 0.0, 0.0)" width="45.0" xlink:href="#morphshape2"/>
    <use ffdec:characterId="6721" height="20.95" transform="matrix(-1.1091, -0.1303, 0.0033, 1.2717, -91.8, -15.15)" width="12.05" xlink:href="#shape0"/>
    <use ffdec:characterId="6721" height="20.95" transform="matrix(0.8902, 0.1311, 0.0204, -1.0179, -82.95, 12.2)" width="12.05" xlink:href="#shape0"/>
  </g>
  <defs>
    <g id="morphshape0">
      <path d="M-126.65 0.05 Q-126.65 0.95 -126.05 1.55 -125.45 2.15 -124.55 2.15 -123.7 2.15 -123.1 1.55 -122.5 0.95 -122.5 0.05 -122.5 -0.8 -123.1 -1.4 -123.7 -2.0 -124.55 -2.0 -125.45 -2.0 -126.05 -1.4 -126.65 -0.8 -126.65 0.05" fill="#6b6b6b" fill-rule="evenodd" stroke="none"/>
      <path d="M-126.65 0.05 Q-126.65 -0.8 -126.05 -1.4 -125.45 -2.0 -124.55 -2.0 -123.7 -2.0 -123.1 -1.4 -122.5 -0.8 -122.5 0.05 -122.5 0.95 -123.1 1.55 -123.7 2.15 -124.55 2.15 -125.45 2.15 -126.05 1.55 -126.65 0.95 -126.65 0.05 Z" ffdec:has-small-stroke="true" ffdec:original-stroke-width="0.0" fill="none" stroke="#000000" stroke-linecap="round" stroke-linejoin="round" stroke-opacity="0.0" stroke-width="1.0"/>
    </g>
    <g id="morphshape1">
      <path d="M-111.3 4.1 Q-111.3 5.5 -110.3 6.55 -109.25 7.6 -107.8 7.6 -106.4 7.6 -105.35 6.55 -104.3 5.5 -104.3 4.1 -104.3 2.65 -105.35 1.6 -106.4 0.6 -107.8 0.6 -109.25 0.6 -110.3 1.6 -111.3 2.65 -111.3 4.1" fill="#6b6b6b" fill-rule="evenodd" stroke="none"/>
      <path d="M-111.3 4.1 Q-111.3 2.65 -110.3 1.6 -109.25 0.6 -107.8 0.6 -106.4 0.6 -105.35 1.6 -104.3 2.65 -104.3 4.1 -104.3 5.5 -105.35 6.55 -106.4 7.6 -107.8 7.6 -109.25 7.6 -110.3 6.55 -111.3 5.5 -111.3 4.1 Z" ffdec:has-small-stroke="true" ffdec:original-stroke-width="0.0" fill="none" stroke="#000000" stroke-linecap="round" stroke-linejoin="round" stroke-opacity="0.0" stroke-width="1.0"/>
    </g>
    <g id="morphshape2">
      <path d="M-119.25 -3.85 Q-119.25 -2.85 -118.6 -2.15 -117.9 -1.45 -116.9 -1.45 -115.9 -1.45 -115.25 -2.15 -114.55 -2.85 -114.55 -3.85 -114.55 -4.8 -115.25 -5.5 -115.9 -6.15 -116.9 -6.15 -117.9 -6.15 -118.6 -5.5 -119.25 -4.8 -119.25 -3.85" fill="#6b6b6b" fill-rule="evenodd" stroke="none"/>
      <path d="M-119.25 -3.85 Q-119.25 -4.8 -118.6 -5.5 -117.9 -6.15 -116.9 -6.15 -115.9 -6.15 -115.25 -5.5 -114.55 -4.8 -114.55 -3.85 -114.55 -2.85 -115.25 -2.15 -115.9 -1.45 -116.9 -1.45 -117.9 -1.45 -118.6 -2.15 -119.25 -2.85 -119.25 -3.85 Z" ffdec:has-small-stroke="true" ffdec:original-stroke-width="0.0" fill="none" stroke="#000000" stroke-linecap="round" stroke-linejoin="round" stroke-opacity="0.0" stroke-width="1.0"/>
    </g>
    <g id="shape0">
      <path d="M4.85 -3.6 Q4.35 -1.6 2.9 -2.05 1.5 -2.55 0.4 0.0 -0.75 2.5 0.45 3.8 1.55 4.95 0.45 5.85 L-1.5 7.2 Q-3.15 9.8 -3.9 9.45 -6.5 5.65 -3.25 5.3 -1.3 5.1 -1.65 3.85 L-2.25 1.65 -2.15 -1.35 Q-2.1 -3.0 -0.65 -3.1 1.4 -3.2 2.05 -4.2 2.8 -5.25 1.15 -6.45 -1.15 -8.2 4.0 -9.45 L3.6 -7.95 Q3.2 -6.45 4.1 -6.15 5.4 -5.75 4.85 -3.6" fill="#ffffff" fill-rule="evenodd" stroke="none"/>
      <path d="M4.85 -3.6 Q4.35 -1.6 2.9 -2.05 1.5 -2.55 0.4 0.0 -0.75 2.5 0.45 3.8 1.55 4.95 0.45 5.85 L-1.5 7.2 Q-3.15 9.8 -3.9 9.45 -6.5 5.65 -3.25 5.3 -1.3 5.1 -1.65 3.85 L-2.25 1.65 -2.15 -1.35 Q-2.1 -3.0 -0.65 -3.1 1.4 -3.2 2.05 -4.2 2.8 -5.25 1.15 -6.45 -1.15 -8.2 4.0 -9.45 L3.6 -7.95 Q3.2 -6.45 4.1 -6.15 5.4 -5.75 4.85 -3.6 Z" fill="none" stroke="#3c3c3c" stroke-linecap="round" stroke-linejoin="round" stroke-width="2.0"/>
      <path d="M4.85 -3.6 Q4.35 -1.6 2.9 -2.05 1.5 -2.55 0.4 0.0 -0.75 2.5 0.45 3.8 1.55 4.95 0.45 5.85 L-1.5 7.2 Q-3.15 9.8 -3.9 9.45 -6.5 5.65 -3.25 5.3 -1.3 5.1 -1.65 3.85 L-2.25 1.65 -2.15 -1.35 Q-2.1 -3.0 -0.65 -3.1 1.4 -3.2 2.05 -4.2 2.8 -5.25 1.15 -6.45 -1.15 -8.2 4.0 -9.45 L3.6 -7.95 Q3.2 -6.45 4.1 -6.15 5.4 -5.75 4.85 -3.6" fill="#9a9a9a" fill-rule="evenodd" stroke="none"/>
    </g>
  </defs>
</svg>
